<?xml version="1.0" encoding="utf-8"?>
<!-- Generator: Adobe Illustrator 16.0.0, SVG Export Plug-In . SVG Version: 6.00 Build 0)  -->
<!DOCTYPE svg PUBLIC "-//W3C//DTD SVG 1.1//EN" "http://www.w3.org/Graphics/SVG/1.1/DTD/svg11.dtd">
<svg version="1.1" xmlns="http://www.w3.org/2000/svg" xmlns:xlink="http://www.w3.org/1999/xlink" x="0px" y="0px" width="1024px"
	 height="1024px" viewBox="0 0 1024 1024" enable-background="new 0 0 1024 1024" xml:space="preserve">
<g id="Layer_1">
	<linearGradient id="SVGID_1_" gradientUnits="userSpaceOnUse" x1="511.9995" y1="-177.835" x2="511.9995" y2="777.6957">
		<stop  offset="0" style="stop-color:#FAEC21"/>
		<stop  offset="1" style="stop-color:#FBB004"/>
	</linearGradient>
	<path fill="url(#SVGID_1_)" d="M798.98,0H225.02C100.757,0,0.021,100.724,0,224.981V798.98
		C0,923.229,100.704,1023.958,224.943,1024H798.98C923.255,1024,1024,923.255,1024,798.98V225.02C1024,100.745,923.255,0,798.98,0z"
		/>
</g>
<g id="Layer_2">
	<path fill="#FFFFFF" d="M899.164,260.744c-3.52-4.053-9.809-6.081-18.864-6.081H616.629l0.021-0.159H399.651v0.004h-50.76
		c-20.31,0-36.774,16.464-36.774,36.774c0,20.31,16.464,36.773,36.774,36.773h95.635c20.312,0,36.774,16.464,36.774,36.773
		c0,20.31-16.463,36.774-36.774,36.774H260.796c-20.31,0-36.773,16.464-36.773,36.773c0,20.31,16.463,36.774,36.773,36.774h139.604
		c20.31,0,36.773,16.463,36.773,36.773c0,20.311-16.463,36.772-36.773,36.772H157.668c-20.311,0-36.774,16.466-36.774,36.775
		c0,20.311,16.463,36.773,36.774,36.773h316.279c4.565,0,8.933,0.838,12.967,2.358c13.91,5.243,23.807,18.671,23.807,34.415
		c0,19.091-14.548,34.78-33.162,36.595c-1.189,0.117-2.393,0.179-3.612,0.179h-74.295v0.156H231.215
		c-20.31,0-36.774,16.464-36.774,36.772c0,20.311,16.464,36.774,36.774,36.774h242.731c1.133,0,2.252-0.058,3.36-0.159h12.153
		c1.303,0.103,2.668,0.159,4.11,0.159h110.831c9.057,0,15.877-2.017,20.464-6.07c4.588-4.053,7.479-10.608,8.674-19.675
		l18.556-140.856h124.414c9.056,0,15.879-2.025,20.466-6.079c4.587-4.055,7.479-10.61,8.671-19.665l11.304-85.809
		c1.193-9.056,0.029-15.6-3.49-19.654c-3.52-4.054-9.809-6.08-18.865-6.08H670.18l9.797-74.369h182.331
		c9.056,0,15.877-2.016,20.464-6.07c4.588-4.053,7.479-10.608,8.673-19.675l11.209-85.084
		C903.846,271.353,902.683,264.797,899.164,260.744z"/>
</g>
</svg>
