<?xml version="1.0" encoding="utf-8"?>
<!-- Generator: Adobe Illustrator 16.0.0, SVG Export Plug-In . SVG Version: 6.00 Build 0)  -->
<!DOCTYPE svg PUBLIC "-//W3C//DTD SVG 1.1//EN" "http://www.w3.org/Graphics/SVG/1.1/DTD/svg11.dtd">
<svg version="1.1" xmlns="http://www.w3.org/2000/svg" xmlns:xlink="http://www.w3.org/1999/xlink" x="0px" y="0px" width="1024px"
	 height="1024px" viewBox="0 0 1024 1024" enable-background="new 0 0 1024 1024" xml:space="preserve">
<g id="Layer_1">
	<linearGradient id="SVGID_1_" gradientUnits="userSpaceOnUse" x1="511.9995" y1="-177.835" x2="511.9995" y2="777.6957">
		<stop  offset="0" style="stop-color:#86FE6A"/>
		<stop  offset="1" style="stop-color:#03D602"/>
	</linearGradient>
	<path fill="url(#SVGID_1_)" d="M798.98,0H225.02C100.757,0,0.021,100.724,0,224.981V798.98
		C0,923.229,100.704,1023.958,224.943,1024H798.98C923.255,1024,1024,923.255,1024,798.98V225.02C1024,100.745,923.255,0,798.98,0z"
		/>
</g>
<g id="Layer_2">
	<g>
		<path fill="#FFFFFF" d="M264.797,578.202c16.522-98.743,135.477-163.83,261.046-255.843
			c125.564-92.016,36.348-195.252,36.348-195.252s-31.81,70.137-128.871,136.901c-47.636,32.766-244.526,134.654-175.131,316.438
			l4.167,11.656L264.797,578.202z"/>
		<path fill="#FFFFFF" d="M681.146,178.725c0,0,40.487,40.499,62.785,78.55c14.117,24.099,29.743,87.527-42.955,143.633
			c-72.695,56.106-161.914,130.168-185.049,154.854c-23.131,24.686-13.215,51.616-13.215,51.616s4.984,10.8,46.263-15.709
			c17.316-11.118,110.771-63.474,181.739-123.434c15.877-13.412,42.96-44.885,42.96-60.596c0,0,42.606,155.852-85.503,223.09
			c-94.742,49.722-240.169,126.486-271.375,167.412c-38.952,51.08-33.042,80.796-29.739,98.751c0,0-84.939-115.436-98.745-159.384
			c-31.057-98.873,44.343-209.624,135.093-269.273C525.843,400.907,681.146,293.183,681.146,178.725z"/>
	</g>
</g>
</svg>
