<?xml version="1.0" encoding="utf-8"?>
<!-- Generator: Adobe Illustrator 16.0.0, SVG Export Plug-In . SVG Version: 6.00 Build 0)  -->
<!DOCTYPE svg PUBLIC "-//W3C//DTD SVG 1.1//EN" "http://www.w3.org/Graphics/SVG/1.1/DTD/svg11.dtd">
<svg version="1.1" xmlns="http://www.w3.org/2000/svg" xmlns:xlink="http://www.w3.org/1999/xlink" x="0px" y="0px" width="1024px"
	 height="1024px" viewBox="0 0 1024 1024" enable-background="new 0 0 1024 1024" xml:space="preserve">
<g id="Layer_1">
	<linearGradient id="SVGID_1_" gradientUnits="userSpaceOnUse" x1="511.9995" y1="-177.835" x2="511.9995" y2="777.6957">
		<stop  offset="0" style="stop-color:#FAEC21"/>
		<stop  offset="1" style="stop-color:#FBB004"/>
	</linearGradient>
	<path fill="url(#SVGID_1_)" d="M798.98,0H225.02C100.757,0,0.021,100.724,0,224.981V798.98
		C0,923.229,100.704,1023.958,224.943,1024H798.98C923.255,1024,1024,923.255,1024,798.98V225.02C1024,100.745,923.255,0,798.98,0z"
		/>
</g>
<g id="Layer_2">
	<g>
		<g>
			<path fill="#FFFFFF" d="M292.897,575.68c14.645-94.979,120.077-157.586,231.373-246.094
				c111.292-88.508,32.215-187.811,32.215-187.811s-28.194,67.463-114.223,131.684C400.042,304.977,225.533,402.982,287.04,577.84
				l3.693,11.213L292.897,575.68z"/>
			<path fill="#FFFFFF" d="M661.918,191.425c0,0,35.886,38.956,55.648,75.558c12.513,23.18,26.362,84.191-38.071,138.16
				c-64.433,53.968-143.51,125.206-164.014,148.953c-20.501,23.744-11.713,49.648-11.713,49.648s4.418,10.389,41.004-15.109
				c15.347-10.695,98.18-61.058,161.081-118.73c14.07-12.901,38.075-43.174,38.075-58.287c0,0,37.764,149.913-75.782,214.588
				c-83.974,47.828-212.869,121.669-240.527,161.033c-34.523,49.136-29.286,77.718-26.358,94.987c0,0-75.284-111.035-87.521-153.308
				c-27.526-95.105,39.303-201.637,119.737-259.014C524.271,405.143,661.918,301.521,661.918,191.425z"/>
		</g>
		<circle fill="none" stroke="#FFFFFF" stroke-width="42" cx="512" cy="512" r="373.028"/>
	</g>
</g>
</svg>
