<?xml version="1.0" encoding="utf-8"?>
<!-- Generator: Adobe Illustrator 16.0.0, SVG Export Plug-In . SVG Version: 6.00 Build 0)  -->
<!DOCTYPE svg PUBLIC "-//W3C//DTD SVG 1.1//EN" "http://www.w3.org/Graphics/SVG/1.1/DTD/svg11.dtd">
<svg version="1.1" xmlns="http://www.w3.org/2000/svg" xmlns:xlink="http://www.w3.org/1999/xlink" x="0px" y="0px" width="1024px"
	 height="1024px" viewBox="0 0 1024 1024" enable-background="new 0 0 1024 1024" xml:space="preserve">
<g id="Layer_1">
	<linearGradient id="SVGID_1_" gradientUnits="userSpaceOnUse" x1="511.9995" y1="-177.835" x2="511.9995" y2="777.6957">
		<stop  offset="0" style="stop-color:#00F3FF"/>
		<stop  offset="1" style="stop-color:#00BDFF"/>
	</linearGradient>
	<path fill="url(#SVGID_1_)" d="M798.98,0H225.02C100.757,0,0.021,100.724,0,224.981V798.98
		C0,923.229,100.704,1023.958,224.943,1024H798.98C923.255,1024,1024,923.255,1024,798.98V225.02C1024,100.745,923.255,0,798.98,0z"
		/>
</g>
<g id="Layer_2">
	<g>
		<path fill="#FFFFFF" d="M793.773,154.64c0,0-14.995,247.416-219.301,281.154c-204.305,33.739-213.677,37.487-254.913,89.968
			c0,0-1.875-84.345,60.917-153.696c0,0,37.974-52.032,203.368-91.844C758.424,238.199,793.773,154.64,793.773,154.64z"/>
		<path fill="#FFFFFF" d="M474.495,648.232c0,0,17.506,85.583-47.459,161.195c-70.062,81.497-196.808,56.229-196.808,56.229
			s69.542-41.985,77.04-105.715h0.073c-0.15,1.425,2.028-16.286,2.028-16.286C380.257,631.458,472.009,632.6,472.009,632.6
			c0.75-0.072,1.699,15.482,2.449,15.368L474.495,648.232z"/>
		<path fill="#FFFFFF" d="M675.051,451.163c0,0,16.159,173.19-200.593,196.805c-0.75,0.114-1.538,0.191-2.288,0.265
			c0,0-94.168,1.725-165.057,113.922c0,0,0.077-0.787,0.227-2.212c1.274-14.13,8.471-92.443,8.471-108.821
			c0-18.034,9.928-69.558,52.892-101.143c46.826-34.422,86.598-41.835,118.012-46.484
			C518.092,498.849,640.186,485.465,675.051,451.163z"/>
		<g>
			<path opacity="0.25" fill="#00A0C6" d="M475.827,693.699c2.397-27.148-1.333-45.467-1.333-45.467l-0.037-0.265
				c-0.75,0.114-1.538,0.191-2.288,0.265c0,0-94.168,1.725-165.057,113.922c0,0,0.077-0.787,0.227-2.212h-0.073
				c-0.143,1.19-0.344,2.358-0.527,3.533C379.532,702.606,441.876,693.1,475.827,693.699z"/>
		</g>
	</g>
</g>
</svg>
