<?xml version="1.0" encoding="utf-8"?>
<!-- Generator: Adobe Illustrator 16.0.0, SVG Export Plug-In . SVG Version: 6.00 Build 0)  -->
<!DOCTYPE svg PUBLIC "-//W3C//DTD SVG 1.1//EN" "http://www.w3.org/Graphics/SVG/1.1/DTD/svg11.dtd">
<svg version="1.1" xmlns="http://www.w3.org/2000/svg" xmlns:xlink="http://www.w3.org/1999/xlink" x="0px" y="0px" width="1024px"
	 height="1024px" viewBox="0 0 1024 1024" enable-background="new 0 0 1024 1024" xml:space="preserve">
<g id="Layer_1">
	<linearGradient id="SVGID_1_" gradientUnits="userSpaceOnUse" x1="511.9995" y1="-177.835" x2="511.9995" y2="777.6957">
		<stop  offset="0" style="stop-color:#00F3FF"/>
		<stop  offset="1" style="stop-color:#00BDFF"/>
	</linearGradient>
	<path fill="url(#SVGID_1_)" d="M798.98,0H225.02C100.757,0,0.021,100.724,0,224.981V798.98
		C0,923.229,100.704,1023.958,224.943,1024H798.98C923.255,1024,1024,923.255,1024,798.98V225.02C1024,100.745,923.255,0,798.98,0z"
		/>
</g>
<g id="Layer_2">
	<g>
		<path fill="#FFFFFF" d="M685.938,384.643c0,0-1.923-63.458-72.181-56.487c-59.521,5.906-167.813,50.718-225.959,108.271
			c-44.61,44.154-54.919,100.425-54.919,138.086c0,37.659,12.553,51.783,26.675,64.335c14.122,12.553,29.814,20.399,29.814,20.399
			s-4.709,81.596,12.552,130.24c17.262,48.644,34.068,79.14,54.922,92.58c44.069,28.402,112.923,19.517,137.354-31.566
			c9.696-20.27,22.513-57.308-8.882-88.846c-32.697-32.845-133.268-46.643-95.521-107.116
			c12.978-20.794,45.506-23.535,59.627-26.676c14.123-3.139,56.951-14.025,58.059-47.074c0.795-23.732-20.519-53.553-95.718-36.093
			c-45.163,10.487-74.113,46.745-91.011,25.107c-17.113-21.913,6.277-51.782,28.246-64.336
			c42.081-24.043,69.28-31.984,127.101-34.521C609.33,469.489,684.016,455.566,685.938,384.643z"/>
		
			<ellipse transform="matrix(0.9901 0.1405 -0.1405 0.9901 35.543 -89.412)" fill="#FFFFFF" cx="650.834" cy="206.949" rx="61.952" ry="81.313"/>
		
			<ellipse transform="matrix(0.9655 -0.2603 0.2603 0.9655 -43.8002 145.1922)" fill="#FFFFFF" cx="526.197" cy="237.941" rx="41.823" ry="58.129"/>
		<path fill="#FFFFFF" d="M473.984,277.833c8.333,21.686,1.456,44.505-15.36,50.967c-16.818,6.464-37.209-5.878-45.538-27.563
			c-8.333-21.686-1.458-44.506,15.362-50.969C445.267,243.806,465.651,256.146,473.984,277.833z"/>
		
			<ellipse transform="matrix(0.9334 -0.3587 0.3587 0.9334 -100.1639 161.6323)" fill="#FFFFFF" cx="385.475" cy="350.731" rx="30.369" ry="36.206"/>
		<path fill="#FFFFFF" d="M357.529,406.509c5.636,14.663,0.232,30.382-12.065,35.106c-12.302,4.727-26.84-3.331-32.472-17.992
			c-5.634-14.662-0.233-30.382,12.068-35.107C337.361,383.79,351.897,391.844,357.529,406.509z"/>
	</g>
</g>
</svg>
