<?xml version="1.0" encoding="utf-8"?>
<!-- Generator: Adobe Illustrator 16.0.0, SVG Export Plug-In . SVG Version: 6.00 Build 0)  -->
<!DOCTYPE svg PUBLIC "-//W3C//DTD SVG 1.1//EN" "http://www.w3.org/Graphics/SVG/1.1/DTD/svg11.dtd">
<svg version="1.1" xmlns="http://www.w3.org/2000/svg" xmlns:xlink="http://www.w3.org/1999/xlink" x="0px" y="0px" width="1024px"
	 height="1024px" viewBox="0 0 1024 1024" enable-background="new 0 0 1024 1024" xml:space="preserve">
<g id="Layer_1">
	<linearGradient id="SVGID_1_" gradientUnits="userSpaceOnUse" x1="511.9995" y1="-177.835" x2="511.9995" y2="777.6957">
		<stop  offset="0" style="stop-color:#00F3FF"/>
		<stop  offset="1" style="stop-color:#00BDFF"/>
	</linearGradient>
	<path fill="url(#SVGID_1_)" d="M798.98,0H225.02C100.757,0,0.021,100.724,0,224.981V798.98
		C0,923.229,100.704,1023.958,224.943,1024H798.98C923.255,1024,1024,923.255,1024,798.98V225.02C1024,100.745,923.255,0,798.98,0z"
		/>
</g>
<g id="Layer_2">
	<g>
		<path fill="#FFFFFF" d="M494.968,193.409c0,42.28-34.277,76.551-76.558,76.551c-42.28,0-76.551-34.271-76.551-76.551
			c0-42.28,34.271-76.557,76.551-76.557C460.691,116.853,494.968,151.129,494.968,193.409z"/>
		<g>
			<path fill="#FFFFFF" d="M801.179,198.687c-31.051-54.337-131.988-7.921-131.988-7.921
				c-89.751,34.318-168.946,102.954-256.057,116.152c-78.298,11.864-107.672-63.592-121.429-95.032
				c-18.475-42.233-65.991-5.277-73.912,36.956c-7.916,42.239-10.561,234.942,63.353,385.406
				c21.161,43.073,47.085,80.063,74.111,111.644c-0.146-85.416,17.083-200.909,100.117-251.547
				c139.113-151.163,220.701-153.152,277.17-179.504C830.969,268.907,811.738,217.162,801.179,198.687z"/>
			<path fill="#FFFFFF" d="M355.256,745.891c67.372,78.73,129.875,124.197,166.107,144.413
				c39.256,21.903,68.637,21.119,87.112,5.282c18.475-15.836-7.922-55.438-29.036-79.195
				c-21.118-23.758-34.317-63.353-29.034-116.146c5.277-52.793,139.904-124.074,192.697-147.832
				c52.794-23.758,32.3-55.484,6.902-60.775c-21.93-4.568-101.936,5.344-175.848,18.542
				c-73.913,13.199-118.784-15.836-118.784-15.836C372.339,544.981,355.11,660.475,355.256,745.891z"/>
			<path opacity="0.2" fill="#00C9FF" d="M355.256,745.891c67.372,78.73,129.875,124.197,166.107,144.413
				c39.256,21.903,68.637,21.119,87.112,5.282c18.475-15.836-7.922-55.438-29.036-79.195
				c-21.118-23.758-34.317-63.353-29.034-116.146c5.277-52.793,139.904-124.074,192.697-147.832
				c52.794-23.758,32.3-55.484,6.902-60.775c-21.93-4.568-101.936,5.344-175.848,18.542
				c-73.913,13.199-118.784-15.836-118.784-15.836C380.904,572.326,355.11,660.475,355.256,745.891z"/>
		</g>
	</g>
</g>
</svg>
