<?xml version="1.0" encoding="utf-8"?>
<!-- Generator: Adobe Illustrator 16.0.0, SVG Export Plug-In . SVG Version: 6.00 Build 0)  -->
<!DOCTYPE svg PUBLIC "-//W3C//DTD SVG 1.1//EN" "http://www.w3.org/Graphics/SVG/1.1/DTD/svg11.dtd">
<svg version="1.1" xmlns="http://www.w3.org/2000/svg" xmlns:xlink="http://www.w3.org/1999/xlink" x="0px" y="0px" width="1024px"
	 height="1024px" viewBox="0 0 1024 1024" enable-background="new 0 0 1024 1024" xml:space="preserve">
<g id="Layer_1">
	<linearGradient id="SVGID_1_" gradientUnits="userSpaceOnUse" x1="511.9995" y1="-177.835" x2="511.9995" y2="777.6957">
		<stop  offset="0" style="stop-color:#00D5FF"/>
		<stop  offset="1" style="stop-color:#0056E9"/>
	</linearGradient>
	<path fill="url(#SVGID_1_)" d="M798.98,0H225.02C100.757,0,0.021,100.724,0,224.981V798.98
		C0,923.229,100.704,1023.958,224.943,1024H798.98C923.255,1024,1024,923.255,1024,798.98V225.02C1024,100.745,923.255,0,798.98,0z"
		/>
</g>
<g id="Layer_2">
	<g>
		<path fill="#FFFFFF" d="M381.151-0.049v491.902h53.8c22.686,0,41.527-0.536,56.541-1.638c14.998-1.103,27.632-3.844,37.873-8.239
			c10.239-4.396,19.031-10.98,26.356-19.772c7.31-8.775,15.376-20.858,24.166-36.234l96.62-174.569h126.268L701.76,433.658
			c-14.65,25.616-29.649,46.663-45.024,63.142c-15.377,16.479-34.77,29.822-58.196,40.062c27.822,8.067,50.146,21.064,66.986,38.992
			c16.825,17.928,34.029,42.269,51.61,73.004l104.308,182.273H690.779L594.16,659.838c-8.79-15.36-17.219-27.616-25.271-36.769
			c-8.049-9.154-17.754-16.116-29.096-20.875c-11.344-4.757-25.254-8.05-41.717-9.878c-16.479-1.826-37.51-2.741-63.126-2.741h-53.8
			v241.556H264.76V-0.049H381.151z"/>
	</g>
</g>
</svg>
