<?xml version="1.0" encoding="utf-8"?>
<!-- Generator: Adobe Illustrator 16.0.0, SVG Export Plug-In . SVG Version: 6.00 Build 0)  -->
<!DOCTYPE svg PUBLIC "-//W3C//DTD SVG 1.1//EN" "http://www.w3.org/Graphics/SVG/1.1/DTD/svg11.dtd">
<svg version="1.1" xmlns="http://www.w3.org/2000/svg" xmlns:xlink="http://www.w3.org/1999/xlink" x="0px" y="0px" width="1024px"
	 height="1024px" viewBox="0 0 1024 1024" enable-background="new 0 0 1024 1024" xml:space="preserve">
<g id="Layer_1">
	<linearGradient id="SVGID_1_" gradientUnits="userSpaceOnUse" x1="512.0005" y1="1432.3105" x2="512.0004" y2="-400.5256">
		<stop  offset="0.0914" style="stop-color:#FF6AF3"/>
		<stop  offset="0.6062" style="stop-color:#90A6FA"/>
		<stop  offset="1" style="stop-color:#3FD2FF"/>
	</linearGradient>
	<path fill="url(#SVGID_1_)" d="M798.98,0H225.02C100.771,0,0.042,100.704,0,224.943V799.02
		C0.021,923.25,100.716,1023.958,224.943,1024H798.98C923.255,1024,1024,923.255,1024,798.98V225.02
		C1024,100.745,923.255,0,798.98,0z"/>
</g>
<g id="Layer_3">
	<g>
		<g>
			<path fill="#FFFFFF" d="M300.796,275.455c-25.143,61.536-50.184,122.896-70.54,186.226
				c-17.944,55.826-31.484,114.239-34.303,172.961c-1.035,21.563-0.548,43.365,1.873,64.817
				c2.313,20.492,7.726,41.361,17.395,59.652c8.666,16.394,23.638,31.167,41.426,37.078c25.637,8.519,53.668,7.148,78.971-2.111
				c35.218-12.889,65.717-40.526,86.781-71.031c23.214-33.617,41.536-71.331,48.734-111.85
				c-25.531,16.857-51.062,33.714-76.592,50.571c4.458,13.739,6.08,28.374,9.773,42.337c2.735,10.341,6.12,20.814,11.026,30.338
				c3.77,7.318,10.152,15.278,17.822,18.521c32.633,13.795,62.085-23.594,76.268-47.913c11.984-20.55,18.299-43.094,25.568-65.547
				c-1.516,4.642-3.031,9.283-4.548,13.925c1.438-4.398,2.903-8.813,4.899-12.996c-2.349,4.783-4.698,9.566-7.047,14.35
				c0.455-0.912,0.936-1.802,1.471-2.67c-20.605,10.373-41.21,20.745-61.815,31.118c12.37,13.428,19.56,30.959,29.674,46.005
				c12.79,19.023,30.644,35.152,54.855,35.117c39.617-0.057,70.059-35.759,88.593-66.772c16.869-28.229,26.195-60.589,29.923-93.08
				c0.072-0.65,0.14-1.3,0.201-1.951c0.874-8.805-1.039-20.893-9.584-25.826c-8.376-4.835-20.184-0.706-27.158,4.613
				c-4.969,3.789-10.168,7.57-14.551,12.09c-9.923,10.234-13.664,15.938-21.588,27.77c-7.871,11.753-12.374,25.207-16.449,38.592
				c-4.552,14.953-5.509,34.254-0.725,49.302c4.611,14.506,11.148,26.099,24.067,34.939c10.523,7.201,24.567,10.389,37.004,11.847
				c11.028,1.293,22.262,0.257,33.15-1.663c14.319-2.525,28.145-5.765,41.866-10.603c23.919-8.433,46.732-20.188,68.869-32.458
				c12.101-6.707,22.116-20.732,28.822-32.349c7.176-12.428,12.735-26.667,13.604-41.136c0.537-8.938-0.811-20.76-9.584-25.826
				c-9.234-5.331-19.134,0.165-27.158,4.613c-5.308,2.941-10.656,5.806-16.056,8.576c3.316-1.696,6.632-3.394,9.948-5.09
				c-23.892,12.176-49.018,22.823-75.499,27.74c3.077-0.552,6.153-1.104,9.23-1.655c-14.821,2.614-30.047,3.313-44.73-0.477
				c2.659,0.71,5.319,1.421,7.979,2.131c-8.362-2.323-16.571-5.916-22.878-12.011c1.944,1.948,3.89,3.896,5.835,5.844
				c-4.129-4.255-7.139-9.191-9.232-14.729c1.061,2.94,2.121,5.881,3.183,8.821c-1.427-4.104-2.281-8.273-2.587-12.608
				c0.189,3.721,0.378,7.441,0.567,11.161c-0.138-3.125,0.013-6.19,0.475-9.283c-0.67,4.287-1.34,8.574-2.009,12.861
				c0.339-1.9,0.781-3.749,1.344-5.596c-1.516,4.642-3.032,9.283-4.548,13.925c0.615-1.818,1.33-3.564,2.173-5.29
				c-2.35,4.783-4.698,9.566-7.047,14.35c0.719-1.356,1.493-2.653,2.347-3.93c-2.968,4.426-5.936,8.853-8.903,13.278
				c0.679-0.939,1.379-1.841,2.123-2.729c-3.262,3.634-6.523,7.268-9.785,10.9c1.321-1.467,2.715-2.799,4.239-4.054
				c-3.378,2.724-6.757,5.447-10.135,8.171c0.318-0.243,0.637-0.485,0.955-0.729c-12.248-7.07-24.495-14.142-36.742-21.213
				c-0.27,2.71-0.614,5.406-1.025,8.098c0.67-4.287,1.34-8.574,2.009-12.861c-1.282,8.005-3.165,15.879-5.663,23.592
				c1.516-4.642,3.031-9.283,4.547-13.925c-1.805,5.409-3.906,10.688-6.396,15.82c2.349-4.783,4.698-9.566,7.047-14.35
				c-1.795,3.594-3.764,7.07-5.969,10.43c2.968-4.427,5.936-8.853,8.903-13.278c-1.97,2.906-4.092,5.669-6.431,8.288
				c3.262-3.634,6.523-7.268,9.785-10.9c-1.804,1.945-3.697,3.769-5.727,5.479c3.379-2.724,6.757-5.447,10.135-8.171
				c-2.613,2.105-5.36,3.938-8.334,5.497c3.316-1.697,6.633-3.394,9.949-5.09c-3.396,1.669-6.89,2.875-10.594,3.646
				c3.076-0.551,6.153-1.103,9.23-1.654c-5.949,1.063-11.865,0.915-17.712-0.642c2.659,0.71,5.319,1.421,7.979,2.131
				c-7.44-2.213-13.69-6.518-19.176-11.932c1.945,1.947,3.891,3.896,5.835,5.844c-17.13-17.47-24.337-41.975-40.802-59.849
				c-1.945-1.947-3.89-3.896-5.835-5.844c-5.629-2.713-11.365-2.872-17.209-0.477c-17.344,6.148-29.539,22.464-38.772,37.438
				c-11.033,17.894-16.093,38.517-22.542,58.275c1.516-4.642,3.032-9.283,4.547-13.925c-2.208,6.703-4.564,13.371-7.679,19.715
				c2.349-4.783,4.698-9.566,7.047-14.35c-1.074,2.119-2.23,4.177-3.537,6.16c2.968-4.426,5.936-8.852,8.903-13.277
				c-0.909,1.32-1.872,2.577-2.938,3.773c3.262-3.633,6.524-7.267,9.786-10.9c-0.674,0.713-1.368,1.385-2.11,2.025
				c3.378-2.724,6.756-5.447,10.134-8.171c-0.896,0.718-1.816,1.346-2.823,1.897c3.316-1.696,6.633-3.393,9.949-5.089
				c-1.19,0.58-2.378,0.983-3.68,1.227c3.077-0.551,6.154-1.103,9.23-1.654c-1.873,0.24-3.628,0.075-5.45-0.405
				c2.659,0.71,5.319,1.421,7.978,2.131c-2.949-0.936-5.315-2.51-7.511-4.673c1.945,1.948,3.89,3.896,5.835,5.844
				c-4.931-5.219-7.857-11.929-10.277-18.598c1.061,2.94,2.121,5.881,3.182,8.821c-6.147-17.517-7.579-36.188-13.283-53.766
				c-0.847-6.258-3.853-11.146-9.017-14.665c-8.774-5.065-19.686-0.32-27.158,4.613c-7.659,5.283-14.298,11.64-19.92,19.071
				c-9.017,11.611-17.885,26.845-20.498,41.552c-1.518,8.542-3.62,16.942-6.273,25.203c1.516-4.642,3.032-9.283,4.547-13.925
				c-2.764,8.399-6.077,16.578-9.963,24.522c2.349-4.783,4.698-9.566,7.047-14.35c-3.353,6.727-7.092,13.226-11.26,19.481
				c2.968-4.426,5.936-8.852,8.903-13.278c-3.93,5.794-8.197,11.317-12.854,16.546c3.262-3.634,6.524-7.268,9.786-10.9
				c-4.642,5.113-9.61,9.869-14.966,14.23c3.378-2.724,6.756-5.447,10.134-8.171c-6.022,4.798-12.424,9.001-19.266,12.537
				c3.316-1.696,6.633-3.393,9.949-5.09c-8.94,4.482-18.353,7.652-28.196,9.429c3.077-0.552,6.153-1.104,9.23-1.655
				c-13.499,2.249-27.769,2.137-41.069-1.29c2.659,0.711,5.319,1.421,7.978,2.132c-10.116-2.791-19.082-7.958-26.512-15.372
				c1.945,1.947,3.89,3.896,5.835,5.844c-8.267-8.513-13.93-18.951-18.013-30.021c1.061,2.94,2.121,5.881,3.182,8.821
				c-6.263-17.462-8.75-36.024-9.72-54.475c0.189,3.72,0.378,7.44,0.567,11.16c-1.385-28.382,0.704-56.821,5.02-84.876
				c-0.67,4.288-1.34,8.575-2.009,12.862c6.268-39.882,16.592-78.958,29.074-117.318c-1.516,4.642-3.032,9.283-4.547,13.925
				c18.565-56.718,41.709-111.755,64.266-166.962c4.739-11.598,8.326-25.32,5.989-37.947c-1.636-8.843-7.246-16.595-16.996-16.797
				c-11.147-0.23-21.745,7.689-29.313,14.915C315.335,247.618,306.634,261.167,300.796,275.455L300.796,275.455z"/>
		</g>
	</g>
	<g>
		<g>
			<path fill="#FFFFFF" d="M425.564,439.822c-10.652,11.27-10.663,11.607-19.281,24.881c-3.132,4.824-5.766,10.078-7.619,15.52
				c-3.235,9.497-6.787,18.899-6.797,29.127c0.189,3.721,0.378,7.44,0.567,11.161c0.847,6.258,3.853,11.146,9.017,14.665
				c8.774,5.065,19.686,0.32,27.158-4.613c12.096-7.986,21.647-19.92,28.823-32.349c2.349-4.783,4.698-9.566,7.047-14.349
				c3.625-8.584,5.811-17.513,6.557-26.787c0-0.55,0.011-1.093,0.083-1.639c-0.67,4.287-1.339,8.574-2.009,12.862
				c0.042-0.239,0.093-0.469,0.158-0.702c-1.516,4.642-3.031,9.283-4.547,13.924c0.083-0.243,0.177-0.471,0.289-0.702
				c-2.349,4.783-4.698,9.566-7.047,14.35c0.085-0.162,0.18-0.318,0.284-0.468c-2.968,4.426-5.936,8.852-8.903,13.277
				c0.114-0.164,0.237-0.32,0.37-0.468c-3.262,3.634-6.523,7.267-9.785,10.9c0.074-0.078,0.147-0.156,0.221-0.234
				c3.262-3.633,6.524-7.267,9.786-10.9c6.554-8.494,11.871-17.703,15.95-27.626c1.516-4.642,3.032-9.283,4.547-13.925
				c2.135-7.921,2.615-15.929,1.442-24.022c-1.061-2.94-2.121-5.881-3.182-8.821c-3.175-5.133-7.78-7.792-13.813-7.975
				c-3.077,0.551-6.153,1.103-9.23,1.655C438.051,429.593,431.356,434.013,425.564,439.822L425.564,439.822z"/>
		</g>
	</g>
</g>
</svg>
