<?xml version="1.0" encoding="utf-8"?>
<!-- Generator: Adobe Illustrator 16.0.0, SVG Export Plug-In . SVG Version: 6.00 Build 0)  -->
<!DOCTYPE svg PUBLIC "-//W3C//DTD SVG 1.1//EN" "http://www.w3.org/Graphics/SVG/1.1/DTD/svg11.dtd">
<svg version="1.1" xmlns="http://www.w3.org/2000/svg" xmlns:xlink="http://www.w3.org/1999/xlink" x="0px" y="0px" width="1024px"
	 height="1024px" viewBox="0 0 1024 1024" enable-background="new 0 0 1024 1024" xml:space="preserve">
<g id="Layer_1">
	<linearGradient id="SVGID_1_" gradientUnits="userSpaceOnUse" x1="-0.2969" y1="-0.2969" x2="1014.3794" y2="1014.3794">
		<stop  offset="0" style="stop-color:#DB3AE0"/>
		<stop  offset="1" style="stop-color:#2E0071"/>
	</linearGradient>
	<path fill="url(#SVGID_1_)" d="M210.155,1023.5H813.83c112.439-7.327,202.343-97.23,209.67-209.67V210.171
		C1016.173,97.73,926.27,7.828,813.83,0.5H210.17C97.735,7.827,7.835,97.722,0.5,210.155v603.683
		C7.831,926.269,97.725,1016.165,210.155,1023.5z"/>
</g>
<g id="Layer_4">
	<g>
		<path opacity="0.3" fill="#15BEFF" d="M879.261,526.413c-27.259-39.896-75.114-73.745-125.776-109.577
			c-21.271-15.045-44.472-25.829-63.696-46.504c-16.439-17.675-25.434-46.29-37.466-69.399
			c-28.651-55.043-55.716-107.035-91.565-139.438c-24.075-21.76-57.861-42.6-120.177-30.358l-2.062,0.405
			c-53.462,10.503-85.707,44.315-99.759,73.566c-20.928,43.557-26.312,101.924-32.013,163.715
			c-2.393,25.943,1.564,53.939-8.422,78.417c-7.871,21.168-27.372,45.168-41.371,67.143
			c-33.343,52.336-64.837,101.772-74.972,149.018c-6.808,31.73-7.964,71.412,33.797,119.255l1.382,1.585
			c35.826,41.048,81.232,52.066,113.59,49.61c48.183-3.654,101.422-28.174,157.787-54.134
			c23.665-10.899,44.333-26.139,72.123-31.912c25.979-4.073,52.803,1.118,78.834,2.256c61.995,2.708,120.553,5.264,166.535-9.583
			c30.885-9.967,65.825-28.806,86.381-88.895l0.681-1.991C910.728,598.043,897.568,553.213,879.261,526.413z M516.333,521.82
			l-0.051,0.113l-0.089-0.09l-0.072-0.098l0.121-0.033l0.119-0.016L516.333,521.82z"/>
		<path opacity="0.3" fill="#15BEFF" d="M834.472,518.51c-24.012-35.147-66.164-64.962-110.793-96.525
			c-18.736-13.253-39.172-22.751-56.109-40.963c-14.477-15.57-22.401-40.774-32.999-61.13
			c-25.239-48.487-49.078-94.285-80.658-122.826c-21.206-19.168-50.966-37.525-105.859-26.741l-1.815,0.356
			c-47.094,9.252-75.497,39.036-87.876,64.802c-18.432,38.366-23.175,89.779-28.198,144.21c-2.108,22.853,1.377,47.514-7.42,69.072
			c-6.934,18.647-24.111,39.79-36.442,59.145c-29.372,46.101-57.112,89.646-66.041,131.268c-5.997,27.95-7.013,62.902,29.77,105.046
			l1.219,1.395c31.558,36.159,71.554,45.865,100.058,43.701c42.443-3.217,89.339-24.818,138.988-47.684
			c20.847-9.601,39.052-23.024,63.531-28.11c22.882-3.59,46.514,0.986,69.44,1.986c54.608,2.384,106.192,4.638,146.7-8.44
			c27.202-8.779,57.982-25.375,76.085-78.306l0.604-1.755C862.188,581.606,850.596,542.116,834.472,518.51z M514.778,514.459
			l-0.042,0.102l-0.078-0.08l-0.064-0.085l0.107-0.028l0.105-0.014L514.778,514.459z"/>
		<path opacity="0.3" fill="#15BEFF" d="M774.977,508.007c-19.695-28.831-54.276-53.289-90.887-79.182
			c-15.371-10.873-32.136-18.665-46.03-33.604c-11.877-12.774-18.377-33.451-27.071-50.15
			c-20.705-39.776-40.263-77.345-66.167-100.76c-17.397-15.725-41.811-30.784-86.841-21.937l-1.492,0.292
			c-38.632,7.589-61.933,32.022-72.088,53.16c-15.122,31.475-19.014,73.65-23.131,118.303c-1.73,18.747,1.129,38.978-6.087,56.664
			c-5.688,15.296-19.78,32.64-29.896,48.519c-24.093,37.82-46.853,73.542-54.177,107.685c-4.919,22.926-5.754,51.603,24.422,86.176
			l1,1.144c25.889,29.663,58.699,37.624,82.082,35.85c34.819-2.641,73.29-20.357,114.02-39.119
			c17.101-7.874,32.036-18.888,52.116-23.059c18.771-2.945,38.158,0.81,56.967,1.629c44.8,1.959,87.113,3.806,120.342-6.924
			c22.316-7.202,47.57-20.815,62.421-64.237l0.49-1.438C797.716,559.769,788.203,527.37,774.977,508.007z M512.72,504.688
			l-0.037,0.08l-0.066-0.063l-0.051-0.072l0.087-0.024l0.088-0.009L512.72,504.688z"/>
		<path opacity="0.3" fill="#15BEFF" d="M691.5,493.274c-13.643-19.974-37.596-36.917-62.958-54.855
			c-10.649-7.53-22.262-12.928-31.888-23.279c-8.228-8.848-12.73-23.172-18.753-34.74c-14.345-27.553-27.892-53.58-45.835-69.8
			c-12.056-10.894-28.966-21.325-60.159-15.196l-1.034,0.202c-26.762,5.258-42.902,22.183-49.938,36.826
			c-10.475,21.803-13.171,51.021-16.024,81.954c-1.199,12.987,0.782,27.001-4.218,39.253c-3.939,10.599-13.702,22.612-20.709,33.611
			c-16.69,26.199-32.456,50.945-37.53,74.597c-3.409,15.882-3.985,35.746,16.919,59.697l0.691,0.794
			c17.934,20.549,40.663,26.062,56.861,24.834c24.12-1.829,50.771-14.103,78.985-27.1c11.847-5.456,22.191-13.085,36.104-15.976
			c13.003-2.039,26.433,0.563,39.464,1.13c31.034,1.356,60.344,2.636,83.364-4.795c15.462-4.992,32.952-14.422,43.243-44.502
			l0.338-0.994C707.254,529.129,700.668,506.687,691.5,493.274z M509.826,490.974l-0.022,0.057l-0.047-0.046l-0.036-0.051
			l0.06-0.014l0.06-0.009L509.826,490.974z"/>
		<path opacity="0.3" fill="#15BEFF" d="M616.701,494.415c-8.011-11.726-22.073-21.673-36.962-32.2
			c-6.248-4.422-13.066-7.59-18.715-13.666c-4.832-5.195-7.477-13.603-11.011-20.395c-8.419-16.176-16.373-31.453-26.907-40.975
			c-7.075-6.395-17.003-12.518-35.315-8.92l-0.606,0.119c-15.709,3.086-25.185,13.021-29.315,21.617
			c-6.15,12.8-7.732,29.951-9.406,48.11c-0.704,7.625,0.459,15.851-2.477,23.043c-2.312,6.221-8.043,13.274-12.157,19.732
			c-9.797,15.377-19.053,29.904-22.031,43.789c-2.001,9.324-2.34,20.986,9.932,35.044l0.407,0.465
			c10.527,12.063,23.87,15.302,33.378,14.58c14.159-1.072,29.803-8.281,46.367-15.909c6.956-3.202,13.028-7.68,21.194-9.376
			c7.633-1.198,15.516,0.328,23.164,0.662c18.219,0.798,35.427,1.549,48.939-2.815c9.076-2.929,19.342-8.464,25.383-26.122
			l0.202-0.586C625.948,515.463,622.082,502.29,616.701,494.415z M510.053,493.065l-0.015,0.032l-0.026-0.024l-0.02-0.028
			l0.034-0.012l0.037-0.003L510.053,493.065z"/>
	</g>
</g>
<g id="Layer_3">
	<g>
		<g>
			<g opacity="0.1">
				<path fill="#FFFFFF" d="M303.792,911.974c-48.943,0-96.657-22.508-130.909-61.753l-1.379-1.579
					c-52.92-60.629-49.054-114.183-41.543-149.191c11.436-53.313,44.549-105.289,79.605-160.316
					c4.529-7.108,9.472-14.246,14.252-21.147c9.766-14.1,19.864-28.68,23.882-39.486l0.189-0.508l0.205-0.502
					c4.405-10.795,4.629-25.516,4.866-41.1c0.135-8.852,0.274-18.005,1.145-27.448c5.997-64.987,11.659-126.345,35.271-175.491
					c22.614-47.073,69.049-81.647,124.214-92.485l2.076-0.407c14.451-2.839,28.457-4.28,41.615-4.28
					c54.565,0,87.965,24.484,108.341,42.902c40.454,36.565,68.91,91.23,99.036,149.104c4.183,8.033,7.883,16.306,11.461,24.306
					c6.484,14.498,13.189,29.489,20.664,37.525c10.257,11.031,22.586,18.78,36.861,27.751c6.984,4.389,14.206,8.928,21.492,14.081
					c53.269,37.675,103.584,73.262,134.345,118.284c13.105,19.188,22.086,42.113,25.972,66.303
					c4.654,28.978,1.968,58.423-7.986,87.516l-0.685,2.001c-26.044,76.136-74.356,99.561-108.431,110.557
					c-28.539,9.216-61.589,13.326-107.14,13.326c-0.003,0,0,0-0.003,0c-23.218,0-47.762-1.072-71.497-2.109
					c-8.667-0.378-17.162-1.143-25.378-1.881c-10.729-0.966-20.861-1.877-30.47-1.877c-5.704,0-10.719,0.324-15.295,0.991
					c-13.938,3.055-26.295,9.707-40.559,17.386c-7.384,3.976-15.02,8.086-23.312,11.905c-59.264,27.295-115.241,53.076-169.615,57.2
					C311.386,911.831,307.586,911.974,303.792,911.974z"/>
			</g>
			<g opacity="0.1">
				<path fill="#FFFFFF" d="M325.382,867.403c-44.299,0-87.458-20.341-118.41-55.806l-1.202-1.376
					c-47.842-54.813-44.331-103.296-37.529-134.997c10.231-47.692,39.593-93.778,70.678-142.569
					c4.027-6.321,8.404-12.641,12.637-18.752c8.458-12.213,17.205-24.842,20.565-33.879l0.189-0.508l0.205-0.501
					c3.587-8.792,3.779-21.381,3.982-34.709c0.12-7.875,0.244-16.019,1.026-24.496c5.316-57.618,10.337-112.027,31.455-155.984
					c20.481-42.629,62.474-73.926,112.331-83.721l1.819-0.357c12.999-2.554,25.604-3.849,37.46-3.849
					c49.483,0,79.737,22.173,98.189,38.852c36.186,32.702,61.416,81.174,88.129,132.493c3.739,7.183,7.024,14.527,10.201,21.629
					c5.575,12.465,11.342,25.355,17.461,31.938c8.663,9.314,19.312,16.006,31.641,23.755c6.2,3.896,12.612,7.926,19.123,12.532
					c47.228,33.4,91.838,64.949,119.36,105.231c26.677,39.063,32.784,91.076,16.339,139.141l-0.614,1.789
					c-23.525,68.784-67.271,89.983-98.127,99.942c-25.567,8.255-55.067,11.937-95.639,11.937c-0.003,0-0.002,0-0.004,0
					c-20.533,0-42.197-0.945-63.148-1.86c-7.743-0.338-15.274-1.016-22.559-1.67c-9.353-0.842-18.187-1.637-26.465-1.637
					c-4.765,0-8.942,0.266-12.737,0.811c-11.661,2.582-22.272,8.294-34.513,14.884c-6.561,3.533-13.346,7.186-20.77,10.604
					c-52.56,24.207-102.188,47.063-150.817,50.749C332.281,867.273,328.828,867.403,325.382,867.403z"/>
			</g>
			<g opacity="0.1">
				<path fill="#FFFFFF" d="M354.064,808.199c-38.132,0-75.24-17.46-101.81-47.902l-0.982-1.124
					c-41.083-47.069-38.042-88.818-32.181-116.129c8.624-40.204,32.999-78.465,58.804-118.971
					c3.378-5.303,7.005-10.541,10.513-15.605c6.406-9.25,13.666-19.732,16.15-26.413l0.189-0.508l0.205-0.502
					c2.502-6.133,2.651-15.894,2.809-26.228c0.1-6.578,0.204-13.38,0.868-20.571c4.411-47.827,8.577-93.002,26.39-130.078
					c17.643-36.723,53.733-63.668,96.542-72.079l1.512-0.296c11.038-2.169,21.781-3.271,31.908-3.271
					c42.731,0,68.809,19.104,84.706,33.473c30.512,27.58,51.46,67.822,73.639,110.427c3.154,6.059,5.888,12.17,8.53,18.08
					c4.163,9.309,8.882,19.86,13.202,24.506c6.554,7.047,14.972,12.337,24.719,18.462c5.155,3.24,10.487,6.59,15.966,10.465
					c39.223,27.742,76.26,53.938,99.455,87.893c22.983,33.645,28.272,78.373,14.148,119.649l-0.477,1.397
					c-20.223,59.127-57.902,77.368-84.486,85.949c-21.618,6.979-46.407,10.093-80.363,10.093c-0.002,0,0.001,0-0.001,0
					c-16.993,0-34.833-0.779-52.086-1.534c-6.482-0.282-12.735-0.845-18.781-1.389c-7.529-0.678-14.642-1.317-21.152-1.317
					c-3.513,0-6.577,0.187-9.334,0.568c-8.65,1.963-16.938,6.423-26.486,11.563c-5.468,2.943-11.121,5.987-17.388,8.873
					c-43.622,20.093-84.828,39.074-125.845,42.184C360.036,808.087,357.047,808.199,354.064,808.199z"/>
			</g>
			<g opacity="0.1">
				<path fill="#FFFFFF" d="M394.313,725.134c-29.483,0-58.104-13.419-78.524-36.814l-0.697-0.799
					c-23.703-27.159-31.769-56.478-24.656-89.626c6.375-29.721,23.761-57.009,42.168-85.899c2.442-3.833,5.013-7.546,7.499-11.136
					c3.676-5.308,8.71-12.576,9.967-15.958l0.189-0.51l0.206-0.504c0.979-2.398,1.08-9.009,1.161-14.32
					c0.069-4.537,0.147-9.678,0.645-15.067c3.145-34.104,6.116-66.321,19.282-93.725c13.663-28.438,41.473-49.277,74.393-55.744
					l1.047-0.206c8.32-1.634,16.449-2.464,24.148-2.464c37.103,0,58.693,19.511,65.788,25.922
					c22.547,20.382,37.485,49.076,53.301,79.455c2.339,4.491,4.299,8.874,6.194,13.111c2.152,4.813,5.405,12.086,7.23,14.082
					c3.592,3.863,8.626,7.026,15,11.031c3.519,2.211,7.508,4.718,11.538,7.568c27.968,19.78,54.384,38.462,71.53,63.567
					c17.798,26.038,21.942,60.546,11.08,92.297l-0.327,0.96c-11.682,34.144-33.039,55.788-65.303,66.206
					c-16.078,5.189-34.251,7.504-58.927,7.504c-0.001,0-0.002,0-0.004,0c-11.998,0-24.477-0.545-36.544-1.072
					c-4.737-0.206-9.194-0.607-13.505-0.995c-4.972-0.447-9.669-0.87-13.703-0.87c-1.739,0-3.239,0.077-4.554,0.234
					c-4.459,1.104-9.255,3.687-15.234,6.906c-3.745,2.017-7.989,4.302-12.626,6.438c-31.115,14.332-60.503,27.868-90.815,30.167
					C398.977,725.046,396.641,725.134,394.313,725.134z"/>
			</g>
			<g opacity="0.1">
				<path fill="#FFFFFF" d="M434.688,662.651c-21.421,0-42.134-9.656-56.828-26.494l-0.354-0.402
					c-16.892-19.352-22.838-41.214-17.726-65.038c4.278-19.954,15.661-37.818,26.668-55.094c1.58-2.48,3.169-4.775,4.706-6.994
					c1.317-1.902,3.217-4.644,4.11-6.181c0.072-1.126,0.099-2.906,0.12-4.29c0.044-2.919,0.095-6.228,0.437-9.935
					c1.881-20.402,3.827-41.492,12.665-59.886c9.957-20.722,30.057-35.875,53.767-40.534l0.618-0.121
					c5.783-1.136,11.48-1.713,16.921-1.713c18.35,0,34.109,6.181,48.177,18.896c15.149,13.695,24.926,32.479,34.379,50.646
					c1.561,2.998,2.853,5.887,3.993,8.435c0.687,1.535,1.659,3.709,2.309,4.956c1.187,0.951,3.356,2.315,5.313,3.545
					c2.226,1.398,4.747,2.984,7.437,4.887c16.71,11.816,34.001,24.043,45.519,40.901c12.97,18.982,16.044,43.966,8.225,66.832
					l-0.227,0.657c-8.267,24.162-24.226,40.242-47.411,47.727c-10.908,3.522-22.926,5.095-38.959,5.095c-0.001,0-0.001,0-0.002,0
					c-7.365,0-14.851-0.328-22.089-0.646c-3.102-0.135-6.007-0.396-8.569-0.627c-2.592-0.232-5.04-0.453-6.769-0.453
					c-0.005,0-0.01,0-0.015,0c-1.205,0.525-3.265,1.634-4.853,2.488c-2.383,1.283-5.084,2.736-8.212,4.177
					c-18.632,8.58-37.857,17.434-58.195,18.972C438.156,662.586,436.418,662.651,434.688,662.651z"/>
			</g>
		</g>
	</g>
</g>
</svg>
