<?xml version="1.0" encoding="utf-8"?>
<!-- Generator: Adobe Illustrator 16.0.0, SVG Export Plug-In . SVG Version: 6.00 Build 0)  -->
<!DOCTYPE svg PUBLIC "-//W3C//DTD SVG 1.1//EN" "http://www.w3.org/Graphics/SVG/1.1/DTD/svg11.dtd">
<svg version="1.1" id="Layer_1" xmlns="http://www.w3.org/2000/svg" xmlns:xlink="http://www.w3.org/1999/xlink" x="0px" y="0px"
	 width="1024px" height="1024px" viewBox="0 0 1024 1024" enable-background="new 0 0 1024 1024" xml:space="preserve">
<g id="bg">
	
		<linearGradient id="SVGID_1_" gradientUnits="userSpaceOnUse" x1="-168.7969" y1="-413.7969" x2="846.8734" y2="601.8734" gradientTransform="matrix(1 0 0 1 168 413)">
		<stop  offset="0" style="stop-color:#54C3FF"/>
		<stop  offset="1" style="stop-color:#00D484"/>
	</linearGradient>
	<path fill="url(#SVGID_1_)" d="M209.86,1024h604.265c112.55-7.334,202.541-97.325,209.875-209.875v-604.25
		C1016.666,97.325,926.675,7.334,814.125,0h-604.25C97.33,7.334,7.342,97.317,0,209.86v604.273
		C7.338,926.674,97.319,1016.658,209.86,1024z"/>
</g>
<g id="logo">
	<g>
		<path fill="#FFFFFF" d="M889.45,485.883c-3.436-44.964-13.687-87.4-31.279-126.501c-27.799-62.986-71.284-117.154-126.931-156.205
			c-62.034-43.964-137.706-70.332-219.241-70.332c-55.645,0-108.381,12.207-155.729,33.712
			c-62.033,28.275-115.248,72.237-153.822,127.406c-21.503,29.802-38.575,62.988-50.304,99.13
			c-12.207,37.098-19.025,77.15-19.025,119.11c0,41.531,6.818,81.607,19.025,119.181l83.016-119.181l59.553-85.446l72.764-104.948
			c18.07-26.368,62.033-26.368,80.059,0l41.053,59.078l59.556,85.446l69.33,100.108l67.853-97.198
			c18.069-26.369,61.557-26.369,80.104,0l8.296,11.729l59.558,85.469l40.53,58.557c11.252-35.668,17.067-73.693,17.067-112.792
			C890.88,503.429,889.927,494.657,889.45,485.883z"/>
		<path fill="none" d="M773.725,480.971l-8.296-11.729c-18.549-26.369-62.035-26.369-80.104,0l-67.853,97.197l-69.331-100.107
			l-59.555-85.446l-41.053-59.078c-18.024-26.368-61.987-26.368-80.059,0l-72.764,104.948l-59.553,85.446l-83.016,119.18
			c12.207,35.668,28.801,68.855,50.304,99.084l92.264-132.842l41.056,58.648c8.772,13.158,23.888,20.979,40.005,20.979
			c15.64,0,30.754-7.82,40.053-20.979l72.762-104.496l69.331,100.107l39.528,56.17l20.025,28.803l5.388,6.771l0.478-0.479
			c8.296,16.115,24.892,26.416,42.963,26.416h92.787h29.754c13.209-13.73,25.415-27.848,36.146-43.965
			c11.729-16.592,21.504-34.713,30.275-53.688c7.297-15.162,13.688-30.803,18.551-46.918l-40.529-58.557L773.725,480.971z"/>
		<path fill="#FFFFFF" d="M666.299,769.566c-18.072,0-31.919-12.195-43.438-25.938l0,0l-5.388-6.771l-20.025-28.803l-39.529-56.17
			l-69.331-100.107l-72.762,104.496c-9.298,13.158-24.413,20.98-40.053,20.98c-16.117,0-31.231-7.82-40.006-20.98l-41.055-58.646
			l-92.264,132.84c29.278,41.484,66.898,77.148,110.813,104.043c57.648,35.57,125.499,56.645,198.738,56.645
			c65.943,0,127.932-17.166,181.62-46.918c28.324-15.643,54.692-34.615,78.148-56.645c5.866-5.816,11.729-11.73,17.07-18.023
			h-29.754h-92.785V769.566z"/>
	</g>
</g>
</svg>
