<?xml version="1.0" encoding="utf-8"?>
<!-- Generator: Adobe Illustrator 16.0.0, SVG Export Plug-In . SVG Version: 6.00 Build 0)  -->
<!DOCTYPE svg PUBLIC "-//W3C//DTD SVG 1.1//EN" "http://www.w3.org/Graphics/SVG/1.1/DTD/svg11.dtd">
<svg version="1.1" xmlns="http://www.w3.org/2000/svg" xmlns:xlink="http://www.w3.org/1999/xlink" x="0px" y="0px" width="1024px"
	 height="1024px" viewBox="0 0 1024 1024" enable-background="new 0 0 1024 1024" xml:space="preserve">
<g id="bg">
	<linearGradient id="SVGID_1_" gradientUnits="userSpaceOnUse" x1="-0.7983" y1="-0.7983" x2="1014.8707" y2="1014.8707">
		<stop  offset="0" style="stop-color:#54FFE9"/>
		<stop  offset="0.9946" style="stop-color:#2AA681"/>
	</linearGradient>
	<path fill="url(#SVGID_1_)" d="M209.86,1024h604.265c112.55-7.334,202.541-97.325,209.875-209.875v-604.25
		C1016.666,97.325,926.675,7.334,814.125,0h-604.25C97.33,7.334,7.342,97.317,0,209.86v604.273
		C7.338,926.674,97.319,1016.658,209.86,1024z"/>
</g>
<g id="logo">
	<path fill="#FFFFFF" d="M742.571,242.175c-22.025,58.503-43.104,77.603-43.104,77.603
		c-45.895-113.824-137.654-150.516-231.258-150.516c-93.604,0-306.541,80.741-306.541,341.339
		c0,260.598,249.155,344.137,349.643,344.137c100.489,0,189.964-53.686,202.353-61.858c12.388-8.174,35.79-35.188,0.688-16.605
		c-35.102,18.583-110.812,16.519-110.812,16.519c-240.896,0-298.022-222.999-298.022-222.999s-1.715-6.755-1.715-33.812
		c0-33.724,17.545-43.964,27.869-43.964s17.207,22.713,17.207,22.713c46.802,108.059,192.718,170.003,217.495,174.133
		c24.778,4.13,33.982-3.01,33.982-3.01c3.704-9.206-83.537-110.083-83.537-110.083s-11.917-22.025-5.508-36.737
		c6.452-14.711,34.889,8.259,34.889,8.259c101.864,79.839,204.631,87.198,232.162,87.198c27.53,0,83.968-8.261,83.968-148.668
		C862.33,345.417,742.571,242.175,742.571,242.175z M701.275,545.445c-30.415,0-55.063-24.694-55.063-55.063
		c0-30.368,24.647-55.062,55.063-55.062s55.062,24.693,55.062,55.062C756.337,520.751,731.69,545.445,701.275,545.445z"/>
</g>
</svg>
